{
  "extensionsUsed": [
    "gd_realtime_lights"
  ],
  "extensionsRequired": [
    "gd_realtime_lights"
  ],
  "accessors": [
    {
      "bufferView": 0,
      "componentType": 5126,
      "count": 24,
      "type": "VEC3",
      "max": [
        0.5,
        0.5,
        0.5
      ],
      "min": [
        -0.5,
        -0.5,
        -0.5
      ]
    },
    {
      "bufferView": 1,
      "componentType": 5126,
      "count": 24,
      "type": "VEC3",
      "max": [
        1.0,
        1.0,
        1.0
      ],
      "min": [
        -1.0,
        -1.0,
        -1.0
      ]
    },
    {
      "bufferView": 2,
      "componentType": 5126,
      "count": 24,
      "type": "VEC4",
      "max": [
        1.0,
        0.0,
        1.0,
        1.0
      ],
      "min": [
        0.0,
        0.0,
        -1.0,
        1.0
      ]
    },
    {
      "bufferView": 3,
      "componentType": 5126,
      "count": 24,
      "type": "VEC2",
      "max": [
        1.0,
        1.0
      ],
      "min": [
        0.0,
        0.0
      ]
    },
    {
      "bufferView": 4,
      "componentType": 5126,
      "count": 24,
      "type": "VEC2",
      "max": [
        0.9966580867767334,
        0.99594426155090332
      ],
      "min": [
        0.0040557663887739182,
        0.34716415405273438
      ]
    },
    {
      "bufferView": 5,
      "componentType": 5121,
      "count": 36,
      "type": "SCALAR",
      "max": [
        23.0
      ],
      "min": [
        0.0
      ]
    }
  ],
  "asset": {
    "version": "2.0"
  },
  "buffers": [
    {
      "uri": "realtimeLight.bin",
      "byteLength": 1380
    }
  ],
  "bufferViews": [
    {
      "buffer": 0,
      "byteLength": 288
    },
    {
      "buffer": 0,
      "byteOffset": 288,
      "byteLength": 288
    },
    {
      "buffer": 0,
      "byteOffset": 576,
      "byteLength": 384
    },
    {
      "buffer": 0,
      "byteOffset": 960,
      "byteLength": 192
    },
    {
      "buffer": 0,
      "byteOffset": 1152,
      "byteLength": 192
    },
    {
      "buffer": 0,
      "byteOffset": 1344,
      "byteLength": 36
    }
  ],
  "cameras": [
    {
      "perspective": {
        "aspectRatio": 1.7777777910232544,
        "yfov": 1.0471975803375244,
        "zfar": 1000.1340942382813,
        "znear": 0.30000001192092896
      },
      "type": "perspective",
      "name": "Main Camera"
    }
  ],
  "materials": [
    {
      "pbrMetallicRoughness": {
        "metallicFactor": 0.0,
        "roughnessFactor": 0.5
      },
      "name": "Default-Material"
    }
  ],
  "meshes": [
    {
      "primitives": [
        {
          "attributes": {
            "POSITION": 0,
            "NORMAL": 1,
            "TANGENT": 2,
            "TEXCOORD_0": 3,
            "TEXCOORD_1": 4
          },
          "indices": 5,
          "material": 0
        }
      ],
      "name": "Cube"
    }
  ],
  "nodes": [
    {
      "camera": 0,
      "translation": [
        0.0,
        1.0,
        -10.0
      ],
      "name": "Main Camera"
    },
    {
      "rotation": [
        -0.051491268,
        0.9068711,
        -0.112254336,
        0.402905226
      ],
      "translation": [
        0.0,
        3.0,
        0.0
      ],
      "name": "Directional Light"
    },
    {
      "mesh": 0,
      "translation": [
        0.0,
        3.0,
        0.0
      ],
      "name": "Cube"
    },
    {
      "translation": [
        1.39,
        3.72,
        -1.66
      ],
      "name": "Point Light"
    },
    {
      "rotation": [
        0.624072731,
        -0.3324655,
        -0.3324655,
        0.624072731
      ],
      "translation": [
        1.72,
        4.96,
        0.04
      ],
      "name": "Spot Light"
    }
  ],
  "scene": 0,
  "scenes": [
    {
      "nodes": [
        0,
        1,
        2,
        3,
        4
      ],
      "name": "realtimeLight",
      "extensions": {
        "gd_realtime_lights": {
          "lightInfos": [
            {
              "type": 0,
              "shadowQuality": 0,
              "intensity": 0.7,
              "color": [
                1.0,
                0.956862748,
                0.8392157
              ],
              "angles": [
                9.329286,
                228.787979
              ]
            },
            {
              "type": 1,
              "shadowQuality": -1,
              "intensity": 1.0,
              "color": [
                0.856910765,
                0.9528302,
                0.0494393073
              ],
              "angles": [
                0.0,
                0.0
              ]
            },
            {
              "type": 2,
              "shadowQuality": 0,
              "intensity": 1.71,
              "color": [
                1.0,
                0.21226418,
                0.587888539
              ],
              "angles": [
                33.90841,
                90.0
              ]
            }
          ]
        }
      }
    }
  ]
}