{
  "extensionsUsed": [
    "gd_linfo",
    "gd_linfo_scene"
  ],
  "extensionsRequired": [
    "gd_linfo",
    "gd_linfo_scene"
  ],
  "accessors": [
    {
      "bufferView": 0,
      "componentType": 5126,
      "count": 24,
      "type": "VEC3",
      "max": [
        0.5,
        0.5,
        0.5
      ],
      "min": [
        -0.5,
        -0.5,
        -0.5
      ]
    },
    {
      "bufferView": 1,
      "componentType": 5126,
      "count": 24,
      "type": "VEC3",
      "max": [
        1.0,
        1.0,
        1.0
      ],
      "min": [
        -1.0,
        -1.0,
        -1.0
      ]
    },
    {
      "bufferView": 2,
      "componentType": 5126,
      "count": 24,
      "type": "VEC4",
      "max": [
        1.0,
        0.0,
        1.0,
        1.0
      ],
      "min": [
        0.0,
        0.0,
        -1.0,
        1.0
      ]
    },
    {
      "bufferView": 3,
      "componentType": 5126,
      "count": 24,
      "type": "VEC2",
      "max": [
        1.0,
        1.0
      ],
      "min": [
        0.0,
        0.0
      ]
    },
    {
      "bufferView": 4,
      "componentType": 5126,
      "count": 24,
      "type": "VEC2",
      "max": [
        0.9966580867767334,
        0.99594426155090332
      ],
      "min": [
        0.0040557663887739182,
        0.34716415405273438
      ]
    },
    {
      "bufferView": 5,
      "componentType": 5121,
      "count": 36,
      "type": "SCALAR",
      "max": [
        23.0
      ],
      "min": [
        0.0
      ]
    },
    {
      "bufferView": 6,
      "componentType": 5126,
      "count": 515,
      "type": "VEC3",
      "max": [
        0.5,
        0.5,
        0.5
      ],
      "min": [
        -0.5,
        -0.5,
        -0.5
      ]
    },
    {
      "bufferView": 7,
      "componentType": 5126,
      "count": 515,
      "type": "VEC3",
      "max": [
        0.99997496604919434,
        1.0,
        0.9999769926071167
      ],
      "min": [
        -0.99997496604919434,
        -1.0,
        -0.99997353553771973
      ]
    },
    {
      "bufferView": 8,
      "componentType": 5126,
      "count": 515,
      "type": "VEC4",
      "max": [
        1.0,
        0.056131001561880112,
        1.0,
        1.0
      ],
      "min": [
        -1.0,
        -0.065983392298221588,
        -1.0,
        -1.0
      ]
    },
    {
      "bufferView": 9,
      "componentType": 5126,
      "count": 515,
      "type": "VEC2",
      "max": [
        0.99833369255065918,
        0.98237103223800659
      ],
      "min": [
        -0.00092136859893798828,
        0.024108767509460449
      ]
    },
    {
      "bufferView": 10,
      "componentType": 5126,
      "count": 515,
      "type": "VEC2",
      "max": [
        1.0000003576278687,
        1.0
      ],
      "min": [
        0.0,
        0.34614646434783936
      ]
    },
    {
      "bufferView": 11,
      "componentType": 5123,
      "count": 2304,
      "type": "SCALAR",
      "max": [
        514.0
      ],
      "min": [
        0.0
      ]
    },
    {
      "bufferView": 12,
      "componentType": 5126,
      "count": 121,
      "type": "VEC3",
      "max": [
        5.0,
        1.1102230246251565E-16,
        5.0
      ],
      "min": [
        -5.0,
        -1.1102230246251565E-16,
        -5.0
      ]
    },
    {
      "bufferView": 13,
      "componentType": 5126,
      "count": 121,
      "type": "VEC3",
      "max": [
        0.0,
        1.0,
        0.0
      ],
      "min": [
        0.0,
        1.0,
        0.0
      ]
    },
    {
      "bufferView": 14,
      "componentType": 5126,
      "count": 121,
      "type": "VEC4",
      "max": [
        1.0,
        0.0,
        0.0,
        1.0
      ],
      "min": [
        1.0,
        0.0,
        0.0,
        1.0
      ]
    },
    {
      "bufferView": 15,
      "componentType": 5126,
      "count": 121,
      "type": "VEC2",
      "max": [
        1.0,
        1.0
      ],
      "min": [
        0.0,
        0.0
      ]
    },
    {
      "bufferView": 16,
      "componentType": 5121,
      "count": 600,
      "type": "SCALAR",
      "max": [
        120.0
      ],
      "min": [
        0.0
      ]
    },
    {
      "bufferView": 17,
      "componentType": 5126,
      "count": 550,
      "type": "VEC3",
      "max": [
        0.5,
        1.0,
        0.5
      ],
      "min": [
        -0.5,
        -1.0,
        -0.5
      ]
    },
    {
      "bufferView": 18,
      "componentType": 5126,
      "count": 550,
      "type": "VEC3",
      "max": [
        0.99871253967285156,
        1.0,
        0.99871253967285156
      ],
      "min": [
        -0.99871253967285156,
        -0.99999916553497314,
        -0.99871253967285156
      ]
    },
    {
      "bufferView": 19,
      "componentType": 5126,
      "count": 550,
      "type": "VEC4",
      "max": [
        1.0,
        0.0303095281124115,
        1.0,
        1.0
      ],
      "min": [
        -1.0,
        -0.031331468373537064,
        -1.0,
        -1.0
      ]
    },
    {
      "bufferView": 20,
      "componentType": 5126,
      "count": 550,
      "type": "VEC2",
      "max": [
        0.99892324209213257,
        0.99884068965911865
      ],
      "min": [
        -0.0010808706283569336,
        -5.3644180297851563E-06
      ]
    },
    {
      "bufferView": 21,
      "componentType": 5126,
      "count": 550,
      "type": "VEC2",
      "max": [
        0.99924451112747192,
        1.0
      ],
      "min": [
        0.0,
        0.20864897966384888
      ]
    },
    {
      "bufferView": 22,
      "componentType": 5123,
      "count": 2496,
      "type": "SCALAR",
      "max": [
        549.0
      ],
      "min": [
        0.0
      ]
    }
  ],
  "asset": {
    "version": "2.0"
  },
  "buffers": [
    {
      "uri": "pbrLightMap.bin",
      "byteLength": 77028
    }
  ],
  "bufferViews": [
    {
      "buffer": 0,
      "byteLength": 288
    },
    {
      "buffer": 0,
      "byteOffset": 288,
      "byteLength": 288
    },
    {
      "buffer": 0,
      "byteOffset": 576,
      "byteLength": 384
    },
    {
      "buffer": 0,
      "byteOffset": 960,
      "byteLength": 192
    },
    {
      "buffer": 0,
      "byteOffset": 1152,
      "byteLength": 192
    },
    {
      "buffer": 0,
      "byteOffset": 1344,
      "byteLength": 36
    },
    {
      "buffer": 0,
      "byteOffset": 1380,
      "byteLength": 6180
    },
    {
      "buffer": 0,
      "byteOffset": 7560,
      "byteLength": 6180
    },
    {
      "buffer": 0,
      "byteOffset": 13740,
      "byteLength": 8240
    },
    {
      "buffer": 0,
      "byteOffset": 21980,
      "byteLength": 4120
    },
    {
      "buffer": 0,
      "byteOffset": 26100,
      "byteLength": 4120
    },
    {
      "buffer": 0,
      "byteOffset": 30220,
      "byteLength": 4608
    },
    {
      "buffer": 0,
      "byteOffset": 34828,
      "byteLength": 1452
    },
    {
      "buffer": 0,
      "byteOffset": 36280,
      "byteLength": 1452
    },
    {
      "buffer": 0,
      "byteOffset": 37732,
      "byteLength": 1936
    },
    {
      "buffer": 0,
      "byteOffset": 39668,
      "byteLength": 968
    },
    {
      "buffer": 0,
      "byteOffset": 40636,
      "byteLength": 600
    },
    {
      "buffer": 0,
      "byteOffset": 41236,
      "byteLength": 6600
    },
    {
      "buffer": 0,
      "byteOffset": 47836,
      "byteLength": 6600
    },
    {
      "buffer": 0,
      "byteOffset": 54436,
      "byteLength": 8800
    },
    {
      "buffer": 0,
      "byteOffset": 63236,
      "byteLength": 4400
    },
    {
      "buffer": 0,
      "byteOffset": 67636,
      "byteLength": 4400
    },
    {
      "buffer": 0,
      "byteOffset": 72036,
      "byteLength": 4992
    }
  ],
  "cameras": [
    {
      "perspective": {
        "aspectRatio": 2.3204271793365479,
        "yfov": 1.0471975803375244,
        "zfar": 1000.1340942382813,
        "znear": 0.30000001192092896
      },
      "type": "perspective",
      "name": "Main Camera"
    }
  ],
  "materials": [
    {
      "pbrMetallicRoughness": {
        "baseColorFactor": [
          0.5,
          0.5,
          0.5,
          1.0
        ],
        "metallicFactor": 0.699999988079071,
        "roughnessFactor": 0.13099998235702515
      },
      "name": "001"
    },
    {
      "pbrMetallicRoughness": {
        "metallicFactor": 0.0,
        "roughnessFactor": 0.16600000858306885
      },
      "name": "000"
    },
    {
      "pbrMetallicRoughness": {
        "metallicFactor": 0.32499998807907104,
        "roughnessFactor": 0.1809999942779541
      },
      "name": "003"
    }
  ],
  "meshes": [
    {
      "primitives": [
        {
          "attributes": {
            "POSITION": 0,
            "NORMAL": 1,
            "TANGENT": 2,
            "TEXCOORD_0": 3,
            "TEXCOORD_1": 4
          },
          "indices": 5,
          "material": 0,
          "extensions": {
            "gd_linfo": {
              "index": 0,
              "so": [
                0.238089427,
                0.238089427,
                0.239268735,
                0.7841906
              ]
            }
          }
        }
      ],
      "name": "Cube"
    },
    {
      "primitives": [
        {
          "attributes": {
            "POSITION": 6,
            "NORMAL": 7,
            "TANGENT": 8,
            "TEXCOORD_0": 9,
            "TEXCOORD_1": 10
          },
          "indices": 11,
          "material": 1,
          "extensions": {
            "gd_linfo": {
              "index": 0,
              "so": [
                0.169921815,
                0.169921815,
                0.78515625,
                0.0
              ]
            }
          }
        }
      ],
      "name": "Sphere"
    },
    {
      "primitives": [
        {
          "attributes": {
            "POSITION": 12,
            "NORMAL": 13,
            "TANGENT": 14,
            "TEXCOORD_0": 15
          },
          "indices": 16,
          "material": 1,
          "extensions": {
            "gd_linfo": {
              "index": 0,
              "so": [
                0.78125,
                0.78125,
                0.0,
                0.0
              ]
            }
          }
        }
      ],
      "name": "Plane"
    },
    {
      "primitives": [
        {
          "attributes": {
            "POSITION": 0,
            "NORMAL": 1,
            "TANGENT": 2,
            "TEXCOORD_0": 3,
            "TEXCOORD_1": 4
          },
          "indices": 5,
          "material": 1,
          "extensions": {
            "gd_linfo": {
              "index": 0,
              "so": [
                0.238089427,
                0.238089427,
                -0.0009656351,
                0.7841906
              ]
            }
          }
        }
      ],
      "name": "a"
    },
    {
      "primitives": [
        {
          "attributes": {
            "POSITION": 17,
            "NORMAL": 18,
            "TANGENT": 19,
            "TEXCOORD_0": 20,
            "TEXCOORD_1": 21
          },
          "indices": 22,
          "material": 2
        }
      ],
      "name": "Capsule"
    }
  ],
  "nodes": [
    {
      "camera": 0,
      "translation": [
        0.0,
        1.0,
        -10.0
      ],
      "name": "Main Camera"
    },
    {
      "rotation": [
        0.4281175,
        0.0116384374,
        0.018647952,
        0.9034557
      ],
      "translation": [
        1.609144,
        -5.80888939,
        -5.38681746
      ],
      "name": "Directional Light (1)"
    },
    {
      "children": [
        3
      ],
      "mesh": 0,
      "name": "Cube"
    },
    {
      "mesh": 1,
      "translation": [
        -2.13,
        -0.088,
        -1.78
      ],
      "name": "Sphere"
    },
    {
      "mesh": 2,
      "translation": [
        0.0,
        -0.669,
        0.0
      ],
      "name": "Plane"
    },
    {
      "mesh": 3,
      "translation": [
        -3.432,
        0.473,
        1.676
      ],
      "name": "a"
    },
    {
      "rotation": [
        0.408217877,
        0.234569684,
        -0.109381631,
        0.8754261
      ],
      "translation": [
        -2.66,
        0.69,
        0.0
      ],
      "name": "plihgt"
    },
    {
      "rotation": [
        0.408217877,
        0.234569684,
        -0.109381631,
        0.8754261
      ],
      "translation": [
        2.2,
        1.77,
        3.26
      ],
      "name": "plihgt (1)"
    },
    {
      "mesh": 4,
      "rotation": [
        0.468326151,
        0.529583037,
        0.0260818638,
        0.706775963
      ],
      "translation": [
        -4.616,
        0.886,
        -0.339
      ],
      "name": "Capsule"
    }
  ],
  "scene": 0,
  "scenes": [
    {
      "nodes": [
        0,
        1,
        2,
        4,
        5,
        6,
        7,
        8
      ],
      "name": "pbrLightMap",
      "extensions": {
        "gd_linfo_scene": {
          "mode": "NonDirectional",
          "maps": [
            "Assets/pbrLightMap/Lightmap-0_comp_light.raw"
          ]
        }
      }
    }
  ]
}